<?xml version="1.0" encoding="utf-8"?>
<!-- Generator: Adobe Illustrator 16.0.4, SVG Export Plug-In . SVG Version: 6.00 Build 0)  -->
<!DOCTYPE svg PUBLIC "-//W3C//DTD SVG 1.1//EN" "http://www.w3.org/Graphics/SVG/1.1/DTD/svg11.dtd">
<svg version="1.1" id="Layer_1" xmlns="http://www.w3.org/2000/svg" xmlns:xlink="http://www.w3.org/1999/xlink" x="0px" y="0px"
	 width="210.73px" height="32px" viewBox="0 0 210.73 32" enable-background="new 0 0 210.73 32" xml:space="preserve">
<path fill="#FFFFFF" d="M210.677,0.847h-5.927v30.392h5.927V0.847z M203.312,0.847h-5.926v30.392h5.926V0.847z M180.963,17.693
	c0.339-2.963,1.862-4.741,4.656-4.741c1.862,0,4.232,1.101,4.571,4.741H180.963z M189.936,24.551
	c-0.508,1.607-2.201,2.455-3.81,2.455c-4.825,0-5.164-3.811-5.248-5.504h15.407v-1.016c0-10.328-6.096-12.444-10.582-12.444
	c-9.905,0-10.836,8.719-10.836,11.428c0,9.312,4.91,12.275,11.174,12.275c3.81,0,8.297-1.777,9.905-7.195H189.936z M174.021,10.751
	C173.682,6.265,169.958,0,160.899,0c-7.873,0-13.968,5.418-13.968,16.084c0,10.498,5.756,15.916,13.884,15.916
	c7.618,0,11.936-4.656,13.206-11.175h-6.35c-0.762,3.726-3.217,5.757-6.772,5.757c-5.418,0-7.534-4.91-7.534-10.328
	c0-8.635,4.486-10.582,7.534-10.582c5.249,0,6.265,3.386,6.772,5.249h6.35V10.751z M121.365,31.153h6.096V19.471
	c0-2.539,0.846-5.418,5.587-5.418c0.593,0,1.186,0,1.777,0.085V8.127c-0.423,0-0.762-0.084-1.185-0.084
	c-3.726,0-5.08,2.201-6.35,4.487h-0.085V8.635h-5.841V31.153L121.365,31.153z M103.333,17.693c0.339-2.963,1.863-4.741,4.741-4.741
	c1.947,0,4.402,1.101,4.741,4.741H103.333z M112.56,24.551c-0.508,1.607-2.2,2.455-3.894,2.455c-4.91,0-5.249-3.811-5.418-5.504
	h15.915v-1.016c0-10.328-6.349-12.444-10.921-12.444c-10.158,0-11.09,8.719-11.09,11.428c0,9.312,4.995,12.275,11.598,12.275
	c3.979,0,8.551-1.777,10.244-7.195H112.56z M89.28,22.941c0,1.016-1.016,3.979-4.147,3.979c-4.656,0-4.741-4.91-4.741-7.365
	c0-2.794,1.016-6.519,4.825-6.519c2.794-0.169,3.81,2.116,4.063,3.641h6.181c-0.593-7.027-6.604-8.635-10.244-8.635
	c-7.873,0-11.09,5.249-11.09,12.529c0,4.741,2.032,11.175,10.752,11.175c8.465,0,10.412-6.519,10.582-8.805H89.28z M72.433,15.661
	c0-4.995-3.555-7.534-8.042-7.534c-4.402,0-6.18,2.54-6.941,3.894h-0.085V8.72h-5.841v22.519h6.095V18.285
	c0-3.386,2.116-5.164,4.825-5.164c3.895,0,3.979,2.794,3.979,4.402v13.63h6.095V15.661H72.433z M42.635,23.111
	c0,2.709-2.709,4.402-5.418,4.402c-1.185,0-2.793-0.678-2.793-2.709c0-2.455,1.862-2.963,4.147-3.387
	c2.54-0.424,3.556-0.762,4.148-1.27v2.963H42.635z M48.645,14.561c0-5.503-6.011-6.519-9.228-6.519c-4.74,0-9.65,1.016-10.412,7.873
	h5.926c0.169-1.27,0.677-3.132,3.725-3.132c1.608,0,3.979,0.169,3.979,2.624c0,1.271-1.185,1.693-2.116,1.778l-5.503,0.846
	c-3.894,0.594-6.772,2.794-6.772,7.196c0,4.656,3.556,6.603,7.026,6.603c4.148,0,6.096-1.861,7.535-3.217
	c0.169,1.271,0.254,1.609,0.593,2.625H50v-0.847c-0.762-0.254-1.354-0.847-1.354-3.556V14.561z M27.989,10.751
	C27.651,6.265,23.842,0,14.444,0C6.402,0,0.052,5.418,0.052,16.084C0.052,26.582,6.063,32,14.36,32
	c7.873,0,12.274-4.656,13.629-11.175H21.47c-0.762,3.726-3.301,5.757-6.941,5.757c-5.503,0-7.788-4.91-7.788-10.328
	c0-8.635,4.656-10.582,7.788-10.582c5.418,0,6.434,3.386,6.941,5.249h6.519V10.751z"/>
</svg>
