<svg width="340" height="360" viewBox="0 0 340 360" fill="none" xmlns="http://www.w3.org/2000/svg">
<path d="M144.163 278.882C143.414 278.854 142.327 278.782 140.932 278.629C139.558 278.426 137.884 278.136 136.015 277.662C135.414 277.521 134.826 277.323 134.212 277.122C133.598 276.915 132.977 276.694 132.34 276.446C132.34 276.446 134.927 274.228 137.404 271.956C139.89 269.692 142.264 267.387 142.264 267.387C142.264 267.387 141.561 267.916 140.488 268.705C139.406 269.494 137.948 270.529 136.447 271.555C134.946 272.581 133.411 273.591 132.245 274.341C131.657 274.716 131.162 275.025 130.823 275.242C130.474 275.458 130.282 275.581 130.282 275.581C130.215 275.543 130.147 275.519 130.088 275.482C129.077 274.986 128.071 274.418 127.095 273.8C126.612 273.485 126.12 273.17 125.657 272.817C125.203 272.465 124.759 272.094 124.324 271.717L124.217 271.625C124.258 271.667 124.217 271.625 124.217 271.631L124.176 271.589L124.013 271.434L123.678 271.123C123.556 271.01 123.425 270.89 123.294 270.77C123.294 270.77 125.921 268.711 128.473 266.608C131.034 264.511 133.518 262.371 133.518 262.371C133.518 262.371 132.78 262.774 131.661 263.371C130.533 263.96 129.016 264.737 127.464 265.505C126.693 265.88 125.913 266.26 125.17 266.611C124.427 266.961 123.749 267.271 123.152 267.54C121.967 268.074 121.154 268.426 121.154 268.426C121.028 268.247 120.892 268.075 120.757 267.902L120.494 267.557C120.415 267.447 120.337 267.324 120.258 267.208C120.092 266.974 119.935 266.741 119.778 266.509C119.63 266.27 119.49 266.032 119.342 265.793C119.342 265.793 119.288 265.704 119.233 265.616C119.179 265.521 119.125 265.432 119.125 265.432L118.943 265.054C118.822 264.804 118.692 264.554 118.571 264.304C118.468 264.055 118.356 263.799 118.244 263.55C117.949 262.819 117.689 262.09 117.464 261.357C117.464 261.357 120.437 259.466 123.327 257.524C126.233 255.589 129.064 253.611 129.064 253.611C129.064 253.611 126.125 254.937 123.052 256.175C120.034 257.391 116.874 258.512 116.874 258.512C116.818 258.097 116.761 257.689 116.722 257.282C116.665 256.75 116.617 256.232 116.605 255.697C116.593 255.155 116.598 254.621 116.603 254.087C116.623 253.007 116.66 251.934 116.695 250.875C116.758 249.804 116.813 248.72 116.848 247.673C116.862 247.146 116.866 246.625 116.861 246.11C116.864 245.595 116.878 245.062 116.856 244.546C116.828 243.514 116.746 242.511 116.566 241.54C116.516 241.041 116.403 240.557 116.299 240.087C116.256 239.85 116.168 239.615 116.098 239.382C116.028 239.155 115.967 238.923 115.87 238.701C115.781 238.486 115.675 238.27 115.605 238.043C115.57 237.93 115.517 237.822 115.463 237.714C115.41 237.606 115.357 237.497 115.313 237.39C115.26 237.282 115.215 237.181 115.162 237.073L115.071 236.884L114.994 236.748C114.877 236.557 114.769 236.373 114.652 236.189L114.575 236.047L114.472 235.902L114.275 235.614L114.078 235.333C114.007 235.237 113.953 235.141 113.881 235.052C113.62 234.687 113.385 234.325 113.095 233.991C112.95 233.825 112.814 233.658 112.678 233.492C112.524 233.331 112.379 233.171 112.233 233.017C112.088 232.857 111.942 232.703 111.787 232.555C111.642 232.401 111.495 232.253 111.35 232.1C110.206 230.916 108.889 229.954 107.748 229.096C106.578 228.263 105.395 227.611 104.475 227.062C103.996 226.806 103.569 226.567 103.172 226.382C102.775 226.197 102.447 226.023 102.159 225.905C101.592 225.655 101.287 225.529 101.287 225.529C101.287 225.529 101.546 225.697 102.028 226.019C102.27 226.173 102.543 226.382 102.874 226.621C103.207 226.847 103.552 227.139 103.957 227.448C104.146 227.605 104.344 227.769 104.557 227.948C104.78 228.12 105.002 228.306 105.233 228.498C105.693 228.877 106.169 229.295 106.649 229.76C106.886 229.986 107.121 230.231 107.356 230.476C107.599 230.728 107.86 230.975 108.111 231.241C108.604 231.771 109.095 232.335 109.547 232.947C109.658 233.105 109.769 233.256 109.888 233.408C110.017 233.561 110.136 233.719 110.246 233.877C110.366 234.036 110.485 234.194 110.595 234.359C110.705 234.523 110.814 234.694 110.924 234.858C111.144 235.193 111.335 235.552 111.536 235.906C111.591 235.994 111.628 236.082 111.673 236.17C111.71 236.264 111.765 236.352 111.81 236.44C111.856 236.528 111.911 236.617 111.957 236.698L112.034 236.834L112.102 236.983C112.192 237.178 112.29 237.381 112.381 237.576L112.457 237.725C112.434 237.684 112.448 237.724 112.449 237.718L112.456 237.738L112.471 237.772L112.491 237.851L112.601 238.133L112.71 238.421C112.747 238.521 112.783 238.622 112.81 238.721C112.865 238.921 112.911 239.126 112.965 239.332C113.029 239.532 113.057 239.743 113.111 239.949C113.148 240.153 113.22 240.361 113.248 240.571C113.303 240.999 113.385 241.428 113.403 241.879C113.449 242.326 113.458 242.782 113.458 243.252C113.458 243.486 113.466 243.721 113.466 243.949C113.466 244.184 113.466 244.419 113.466 244.66C113.466 244.894 113.456 245.135 113.447 245.375C113.437 245.622 113.419 245.862 113.401 246.108C113.391 246.355 113.381 246.602 113.354 246.848C113.335 247.1 113.316 247.353 113.297 247.606C113.241 248.117 113.204 248.616 113.165 249.134C113.126 249.646 113.088 250.165 113.049 250.683C113.009 251.215 112.969 251.746 112.929 252.284C112.897 252.823 112.847 253.373 112.841 253.914C112.83 255.001 112.85 256.124 112.948 257.264C113.002 257.829 113.054 258.413 113.161 258.974C113.267 259.542 113.39 260.105 113.54 260.676C113.623 260.962 113.689 261.247 113.781 261.534C113.873 261.821 113.965 262.108 114.049 262.394C114.141 262.675 114.268 262.964 114.369 263.245C114.478 263.539 114.598 263.809 114.743 264.086C115.254 265.198 115.906 266.295 116.621 267.363L116.905 267.761C117 267.892 117.096 268.016 117.2 268.147C117.295 268.272 117.39 268.402 117.503 268.528C117.607 268.652 117.712 268.777 117.816 268.902C118.033 269.152 118.241 269.402 118.459 269.646C118.695 269.884 118.921 270.122 119.148 270.36C119.262 270.479 119.375 270.598 119.497 270.718C119.619 270.837 119.741 270.957 119.863 271.076C120.108 271.309 120.344 271.548 120.607 271.769C120.861 271.982 121.109 272.176 121.356 272.383L121.726 272.683L121.916 272.834L121.966 272.87L122.031 272.927L122.139 273.006C122.677 273.41 123.233 273.802 123.798 274.182C124.073 274.364 124.356 274.554 124.649 274.725C124.942 274.89 125.227 275.054 125.53 275.212C126.706 275.844 127.896 276.406 129.066 276.875C130.255 277.332 131.434 277.691 132.546 278.005C133.668 278.308 134.724 278.566 135.752 278.719C137.799 279.036 139.546 279.168 140.958 279.205C141.676 279.185 142.305 279.191 142.841 279.145C143.386 279.113 143.842 279.087 144.203 279.048C144.926 278.963 145.305 278.925 145.305 278.925C145.305 278.925 144.904 278.909 144.163 278.882Z" fill="white"/>
<path d="M186.457 282.661C185.783 282.903 184.776 283.212 183.456 283.576C183.124 283.664 182.774 283.738 182.407 283.811C182.032 283.885 181.648 283.958 181.237 284.024C180.417 284.17 179.527 284.308 178.559 284.411C178.263 284.446 177.949 284.48 177.626 284.508C177.469 284.525 177.313 284.536 177.147 284.546C176.99 284.557 176.825 284.56 176.659 284.571C176.006 284.593 175.319 284.607 174.614 284.594C174.614 284.594 175.609 281.62 176.482 278.643C176.927 277.148 177.329 275.659 177.637 274.529C177.927 273.398 178.124 272.64 178.124 272.64C178.124 272.64 177.806 273.403 177.315 274.53C176.816 275.636 176.127 277.12 175.404 278.604C174.672 280.08 173.905 281.563 173.31 282.668C172.715 283.779 172.301 284.513 172.301 284.513C172.223 284.512 172.145 284.504 172.067 284.502C171.78 284.484 171.476 284.459 171.18 284.433C170.876 284.401 170.581 284.363 170.278 284.317C169.67 284.226 169.063 284.128 168.456 284.004C167.841 283.886 167.225 283.755 166.61 283.597C166.004 283.453 165.389 283.288 164.784 283.077L164.672 283.042L164.646 283.035C164.706 283.056 164.646 283.028 164.646 283.035L164.585 283.014L164.352 282.929C164.196 282.866 164.032 282.81 163.877 282.754C163.695 282.691 163.514 282.621 163.332 282.557C163.332 282.557 164.455 279.712 165.474 276.851C165.996 275.431 166.492 273.997 166.86 272.928C167.219 271.852 167.459 271.135 167.459 271.135C167.459 271.135 167.351 271.293 167.172 271.577C166.984 271.848 166.716 272.244 166.403 272.713C165.75 273.663 164.874 274.916 163.946 276.169C162.107 278.675 160.069 281.157 160.069 281.157C159.854 281.039 159.638 280.929 159.414 280.811L158.983 280.576C158.846 280.5 158.708 280.418 158.57 280.335C158.295 280.17 158.019 280.011 157.735 279.846C157.477 279.674 157.202 279.503 156.936 279.331L156.54 279.07L156.154 278.796C155.896 278.618 155.638 278.439 155.381 278.255C155.14 278.07 154.892 277.865 154.652 277.667C153.975 277.087 153.316 276.495 152.693 275.882C152.693 275.882 154.206 273.077 155.633 270.25C157.069 267.43 158.409 264.589 158.409 264.589C158.409 264.589 156.601 266.848 154.611 269.077C153.624 270.188 152.603 271.299 151.814 272.126C151.423 272.54 151.095 272.868 150.864 273.111C150.634 273.341 150.501 273.479 150.501 273.479C150.212 273.113 149.931 272.747 149.66 272.375C148.938 271.42 148.295 270.447 147.686 269.461C147.07 268.462 146.488 267.429 145.907 266.417C145.629 265.911 145.334 265.412 145.038 264.912L144.6 264.176L144.17 263.414C143.588 262.408 143.006 261.429 142.362 260.51C142.209 260.273 142.039 260.056 141.887 259.813C141.726 259.576 141.565 259.347 141.404 259.117C141.082 258.657 140.742 258.216 140.385 257.789C140.045 257.362 139.652 256.961 139.276 256.567C139.097 256.364 138.901 256.173 138.704 255.976C138.516 255.786 138.328 255.589 138.114 255.411C137.909 255.234 137.703 255.056 137.506 254.886C137.403 254.797 137.292 254.715 137.18 254.633L136.854 254.4L136.536 254.161L136.348 254.024L136.184 253.927C135.986 253.79 135.78 253.653 135.574 253.516L135.428 253.406L135.256 253.31L134.92 253.103L134.585 252.904C134.473 252.835 134.361 252.773 134.249 252.711C133.801 252.476 133.379 252.234 132.913 252.039C132.688 251.935 132.482 251.818 132.266 251.707C132.042 251.609 131.826 251.512 131.61 251.408C131.179 251.207 130.73 251.038 130.298 250.87C129.866 250.709 129.425 250.561 129.001 250.42C128.586 250.266 128.171 250.125 127.756 249.997C126.934 249.742 126.129 249.534 125.357 249.367C124.959 249.286 124.595 249.199 124.24 249.12C123.884 249.04 123.529 248.973 123.191 248.914C122.506 248.788 121.872 248.697 121.291 248.62C120.7 248.556 120.17 248.493 119.727 248.452C119.267 248.417 118.885 248.37 118.563 248.357C117.929 248.313 117.59 248.3 117.59 248.3C117.59 248.3 117.91 248.373 118.517 248.51C118.812 248.569 119.175 248.676 119.591 248.783C120.015 248.891 120.509 249.013 121.054 249.157C121.591 249.306 122.171 249.477 122.794 249.675C123.416 249.88 124.056 250.125 124.765 250.358C125.474 250.611 126.191 250.891 126.924 251.218C127.295 251.385 127.657 251.565 128.037 251.745C128.425 251.913 128.805 252.1 129.193 252.294C129.572 252.501 129.977 252.688 130.347 252.915C130.545 253.026 130.734 253.136 130.932 253.253C131.113 253.37 131.302 253.493 131.5 253.617C131.896 253.838 132.274 254.092 132.67 254.339C132.764 254.401 132.859 254.469 132.945 254.531L133.228 254.736L133.503 254.935L133.64 255.038L133.786 255.147C133.975 255.304 134.172 255.461 134.369 255.618L134.515 255.735C134.472 255.7 134.515 255.735 134.506 255.728L134.523 255.748L134.558 255.775L134.617 255.837C134.703 255.912 134.797 255.987 134.883 256.062L135.148 256.287C135.243 256.362 135.337 256.437 135.414 256.519C135.576 256.682 135.747 256.845 135.918 257.015C136.098 257.179 136.242 257.362 136.404 257.538C136.558 257.721 136.728 257.891 136.881 258.088C137.179 258.467 137.485 258.86 137.765 259.259C138.368 260.044 138.909 260.902 139.44 261.8C139.567 262.03 139.702 262.259 139.828 262.488C139.954 262.718 140.089 262.954 140.215 263.19C140.35 263.419 140.485 263.649 140.611 263.885C140.737 264.121 140.872 264.357 140.998 264.593C141.511 265.571 142.032 266.569 142.562 267.567C142.822 268.092 143.109 268.572 143.386 269.084C143.682 269.59 143.968 270.096 144.263 270.609C144.575 271.129 144.896 271.649 145.235 272.17C145.404 272.433 145.573 272.69 145.751 272.954C145.929 273.211 146.116 273.454 146.303 273.705C147.059 274.707 147.893 275.704 148.823 276.669C149.054 276.906 149.284 277.151 149.524 277.389C149.772 277.627 150.02 277.845 150.268 278.077C150.516 278.308 150.799 278.52 151.065 278.739C151.331 278.957 151.587 279.182 151.879 279.395C152.977 280.242 154.18 281.079 155.446 281.762C155.774 281.935 156.093 282.108 156.42 282.281C156.584 282.364 156.739 282.453 156.903 282.53C157.075 282.606 157.239 282.689 157.403 282.772C157.739 282.932 158.067 283.085 158.403 283.244C158.749 283.384 159.085 283.53 159.431 283.677C159.603 283.747 159.768 283.81 159.94 283.873C160.122 283.936 160.304 284 160.477 284.056C160.831 284.183 161.185 284.302 161.54 284.422C161.895 284.542 162.223 284.635 162.561 284.734C162.725 284.791 162.898 284.841 163.063 284.884L163.314 284.961L163.383 284.983L163.444 284.997L163.478 285.011L163.608 285.047C165.045 285.453 166.485 285.692 167.891 285.871C168.594 285.964 169.289 286.036 169.975 286.088C170.314 286.114 170.653 286.134 170.992 286.153C171.322 286.166 171.653 286.158 171.984 286.158C173.298 286.147 174.543 286.083 175.702 285.976C176.286 285.92 176.853 285.87 177.394 285.779C177.926 285.689 178.45 285.591 178.939 285.486C179.935 285.277 180.836 285.052 181.649 284.813C182.454 284.58 183.18 284.346 183.812 284.09C184.434 283.827 184.995 283.603 185.452 283.371C185.909 283.152 186.295 282.972 186.594 282.803C187.183 282.473 187.499 282.305 187.499 282.305C187.499 282.305 187.14 282.426 186.457 282.661Z" fill="white"/>
<path d="M208.21 183.464C208.966 180.439 208.28 177.036 206.347 174.39C205.255 172.894 203.84 171.725 202.236 170.98C202.012 167.681 200.598 164.578 198.203 162.167C195.87 159.829 192.824 158.339 189.512 157.902C189.253 155.792 188.265 153.832 186.661 152.31C184.784 150.533 182.305 149.553 179.658 149.553C174.882 149.553 170.778 152.806 169.91 157.275C169.805 157.843 169.742 158.424 169.742 159.006V229.1C169.742 230.028 169.882 230.936 170.162 231.818C170.757 233.719 172.011 235.43 173.677 236.639C175.407 237.887 177.48 238.553 179.658 238.553C182.172 238.553 184.56 237.658 186.402 236.031C187.971 234.646 189.014 232.83 189.407 230.851C192.747 230.433 195.828 228.944 198.175 226.598C200.577 224.194 201.998 221.104 202.229 217.812C203.105 217.427 203.931 216.924 204.694 216.309C208.091 213.553 209.513 209.091 208.308 205.204C209.821 203.996 211.081 202.493 211.978 200.821C213.049 198.841 213.609 196.607 213.609 194.373C213.609 190.153 211.607 186.135 208.21 183.464ZM193.237 191.25C191.269 192.185 190.499 194.425 191.508 196.241C192.215 197.515 193.615 198.253 195.065 198.253C195.681 198.253 196.305 198.123 196.893 197.842C197.838 197.391 198.539 196.627 198.868 195.68H211.081C210.703 198.939 208.91 201.951 206.13 203.917L205.402 204.433L205.731 205.224C207.027 208.359 205.913 212.305 203.077 214.604C202.566 215.016 202.019 215.362 201.445 215.637L196.284 211.449V209.751C196.487 209.692 196.69 209.614 196.893 209.522C198.854 208.588 199.624 206.354 198.623 204.531C197.614 202.715 195.198 201.997 193.237 202.931C191.269 203.865 190.499 206.106 191.508 207.922C192.005 208.83 192.866 209.457 193.833 209.751V212.475L199.806 217.322C199.554 223.345 194.533 228.303 188.244 228.682L188.09 228.689L182.081 223.809V220.98C182.291 220.915 182.487 220.843 182.691 220.752C184.651 219.817 185.422 217.577 184.42 215.761C183.412 213.945 180.996 213.226 179.035 214.16C178.082 214.611 177.382 215.375 177.053 216.323C176.731 217.263 176.815 218.269 177.305 219.145C177.809 220.053 178.664 220.686 179.637 220.974V224.835L186.822 230.675L186.983 230.505C186.297 233.804 183.23 236.28 179.665 236.28C176.402 236.28 173.46 234.183 172.515 231.184C172.305 230.511 172.2 229.806 172.2 229.1V207.36H177.053C177.123 207.549 177.2 207.739 177.305 207.922C178.012 209.202 179.413 209.934 180.87 209.934C181.486 209.934 182.109 209.803 182.691 209.522C184.651 208.595 185.429 206.354 184.42 204.538C183.412 202.715 180.996 202.003 179.035 202.931C178.054 203.401 177.375 204.192 177.06 205.093H172.2V183.3H177.06C177.123 183.49 177.207 183.679 177.305 183.862C177.795 184.744 178.622 185.397 179.637 185.698C180.043 185.815 180.457 185.874 180.87 185.874C181.493 185.874 182.116 185.737 182.691 185.463C184.651 184.528 185.429 182.288 184.42 180.472C183.412 178.656 180.996 177.937 179.035 178.871C178.054 179.335 177.375 180.132 177.06 181.034H172.2V170.771L176.192 174.984H188.699C189.351 176.212 190.716 177.068 192.292 177.068C194.498 177.068 196.291 175.402 196.291 173.358C196.291 171.32 194.498 169.654 192.292 169.654C190.324 169.654 188.685 170.98 188.356 172.711H177.298L172.2 167.335V159.006C172.2 158.561 172.242 158.111 172.326 157.68C172.984 154.283 176.073 151.826 179.665 151.826C183.573 151.826 186.815 154.759 187.11 158.457L184.35 161.357C183.783 161.07 183.132 160.907 182.445 160.907C180.239 160.907 178.447 162.572 178.447 164.617C178.447 166.662 180.239 168.321 182.445 168.321C184.651 168.321 186.444 166.655 186.444 164.617C186.444 164.042 186.304 163.494 186.045 163.01L188.804 160.11C194.946 160.743 199.743 165.754 199.82 171.738L199.827 172.502L200.591 172.783C202.047 173.319 203.336 174.311 204.323 175.664C206.011 177.97 206.522 180.988 205.654 183.542L205.647 183.555H190.674L182.831 191.224C182.249 190.917 181.577 190.741 180.863 190.741C178.657 190.741 176.864 192.407 176.864 194.445C176.864 196.49 178.657 198.155 180.863 198.155C183.069 198.155 184.862 196.49 184.862 194.445C184.862 193.896 184.728 193.374 184.497 192.903L191.725 185.828H207.37C209.534 187.827 210.878 190.532 211.123 193.413H198.875C198.805 193.223 198.721 193.034 198.623 192.851C197.607 191.035 195.191 190.316 193.237 191.25ZM196.536 194.987C196.41 195.353 196.137 195.647 195.772 195.823C195.009 196.189 194.071 195.908 193.686 195.203C193.293 194.497 193.594 193.635 194.351 193.269C194.575 193.165 194.82 193.112 195.058 193.112C195.618 193.112 196.165 193.393 196.438 193.89C196.627 194.236 196.662 194.621 196.536 194.987ZM195.772 207.504C195.009 207.869 194.071 207.588 193.686 206.883C193.293 206.177 193.594 205.315 194.351 204.949C194.575 204.845 194.82 204.793 195.058 204.793C195.618 204.793 196.165 205.073 196.438 205.57C196.83 206.275 196.529 207.144 195.772 207.504ZM181.57 218.733C180.807 219.092 179.875 218.811 179.483 218.112C179.294 217.766 179.259 217.381 179.385 217.015C179.511 216.649 179.784 216.349 180.148 216.179C180.379 216.068 180.618 216.016 180.856 216.016C181.416 216.016 181.962 216.303 182.235 216.799C182.628 217.505 182.326 218.367 181.57 218.733ZM180.148 204.949C180.379 204.845 180.618 204.793 180.856 204.793C181.416 204.793 181.962 205.073 182.235 205.57C182.628 206.275 182.326 207.144 181.563 207.504C180.807 207.869 179.868 207.588 179.476 206.883C179.091 206.177 179.392 205.315 180.148 204.949ZM180.148 180.89C180.379 180.785 180.618 180.733 180.856 180.733C181.416 180.733 181.962 181.014 182.235 181.51C182.628 182.216 182.326 183.085 181.563 183.444C181.199 183.62 180.779 183.653 180.387 183.536C179.987 183.418 179.665 183.163 179.476 182.823C179.091 182.118 179.392 181.249 180.148 180.89ZM190.737 173.358C190.737 172.567 191.43 171.921 192.285 171.921C193.139 171.921 193.84 172.567 193.84 173.358C193.84 174.148 193.139 174.795 192.285 174.795C191.43 174.795 190.737 174.148 190.737 173.358ZM183.986 164.617C183.986 165.408 183.293 166.048 182.438 166.048C181.584 166.048 180.891 165.408 180.891 164.617C180.891 163.827 181.584 163.18 182.438 163.18C183.293 163.18 183.986 163.827 183.986 164.617ZM182.41 194.451C182.41 195.242 181.71 195.882 180.863 195.882C180.008 195.882 179.308 195.242 179.308 194.451C179.308 193.654 180.008 193.014 180.863 193.014C181.71 193.014 182.41 193.654 182.41 194.451Z" fill="white"/>
<path d="M169.57 157.275C168.681 152.8 164.489 149.553 159.595 149.553C156.893 149.553 154.349 150.526 152.436 152.303C150.795 153.826 149.777 155.786 149.512 157.896C146.13 158.333 143.005 159.83 140.626 162.162C138.168 164.573 136.721 167.682 136.499 170.981C134.851 171.72 133.41 172.889 132.285 174.385C130.307 177.031 129.605 180.435 130.379 183.46C126.903 186.132 124.854 190.149 124.854 194.37C124.854 196.611 125.434 198.838 126.524 200.818C127.448 202.49 128.731 203.993 130.286 205.202C129.046 209.089 130.501 213.551 133.983 216.314C134.757 216.929 135.603 217.432 136.499 217.81C136.735 221.103 138.19 224.2 140.648 226.597C143.048 228.949 146.202 230.439 149.62 230.85C150.021 232.837 151.089 234.646 152.701 236.038C154.579 237.658 157.029 238.553 159.595 238.553C161.823 238.553 163.945 237.893 165.715 236.639C167.42 235.43 168.703 233.725 169.312 231.817C169.599 230.942 169.742 230.027 169.742 229.1V159C169.742 158.418 169.685 157.837 169.57 157.275ZM167.234 176.665C166.782 176.208 166.281 175.803 165.729 175.45C164.296 174.529 162.626 174.072 160.992 174.111C160.197 174.137 159.623 174.823 159.817 175.528C159.96 176.045 160.483 176.397 161.071 176.384C162.167 176.358 163.292 176.672 164.289 177.305C165.937 178.357 166.969 180.128 167.205 182.297H167.234V194.899C167.205 194.99 167.191 195.082 167.191 195.18C167.205 198.427 165.249 199.864 163.285 200.112C160.835 200.426 157.904 198.989 156.8 195.748C156.635 195.271 156.055 194.886 155.503 194.886C154.636 194.886 154.106 195.507 154.349 196.264C155.804 200.811 160.068 202.817 163.629 202.36C164.933 202.196 166.195 201.687 167.234 200.844V210.493C167.033 212.316 166.231 213.74 165.034 214.394C164.124 214.89 162.999 214.975 161.673 214.648C161.064 214.498 160.419 214.773 160.175 215.302C159.889 215.929 160.268 216.654 160.999 216.831C163.479 217.445 165.242 216.935 166.331 216.341C166.653 216.164 166.954 215.955 167.234 215.726V229.1C167.234 229.812 167.119 230.511 166.904 231.184C165.937 234.189 162.934 236.286 159.595 236.286C156.126 236.286 153.124 234.052 152.228 231.007C155.446 230.739 157.803 229.74 159.229 228.035C160.627 226.362 161.107 224.056 160.655 221.149C160.562 220.509 159.903 220.051 159.201 220.156C158.534 220.26 158.076 220.822 158.169 221.43C158.534 223.723 158.219 225.48 157.23 226.663C156.241 227.852 154.45 228.557 151.92 228.753V228.747L150.809 228.681C144.317 228.303 139.143 223.259 138.971 217.164C139.523 216.033 140.44 215.23 141.314 215.06C141.766 214.975 142.124 214.648 142.239 214.237C142.475 213.414 141.658 212.662 140.741 212.852C139.315 213.139 137.982 214.106 137.079 215.53C136.57 215.276 136.09 214.969 135.632 214.603C133.152 212.643 131.963 209.481 132.493 206.645C134.17 207.456 136.076 207.887 137.982 207.887C139.243 207.887 140.497 207.697 141.68 207.312C142.576 207.018 143.715 206.508 144.847 205.639C148.158 204.568 150.953 205.136 152.543 207.22C154.249 209.442 154.156 212.636 152.436 215.021C152.149 215.419 152.142 215.935 152.45 216.321C152.988 216.981 154.041 216.935 154.507 216.295C156.786 213.152 156.886 208.899 154.607 205.927C152.938 203.745 150.351 202.686 147.341 202.856C148.007 201.785 148.552 200.478 148.91 198.884C149.054 198.224 148.559 197.682 147.821 197.682C147.169 197.682 146.524 198.146 146.381 198.714C145.578 201.981 143.636 204.254 140.827 205.176C138.34 205.986 135.431 205.665 133.195 204.392L132.507 203.915C129.283 201.687 127.362 198.12 127.362 194.37C127.362 191.136 128.788 188.046 131.246 185.825C131.97 187.275 132.794 188.412 133.74 189.235C134.263 189.692 135.094 189.659 135.567 189.163V189.156C136.004 188.693 135.961 188.013 135.481 187.589C134.686 186.896 133.969 185.857 133.339 184.485C133.31 184.426 133.274 184.374 133.238 184.322L133.267 184.302L133.002 183.531C132.113 180.984 132.636 177.965 134.363 175.653C135.374 174.307 136.692 173.314 138.183 172.778L138.964 172.497V172.491C141.4 171.674 143.672 171.785 145.621 172.798C146.166 173.085 146.882 172.961 147.262 172.504C147.714 171.955 147.527 171.171 146.875 170.831C144.568 169.629 141.902 169.368 139.121 170.06C139.946 165.115 144.08 161.123 149.347 160.221C150.05 163.939 151.497 166.304 153.762 167.447C154.708 167.924 155.782 168.166 156.965 168.166C157.896 168.166 158.907 168.015 159.982 167.715C160.677 167.519 161.071 166.846 160.827 166.225C160.591 165.657 159.903 165.356 159.265 165.533C157.509 166.036 156.069 166.01 154.98 165.461C153.468 164.697 152.414 162.861 151.848 159.993L151.841 159.973C151.418 156.955 153.095 153.982 156.083 152.597C157.151 152.101 158.348 151.82 159.588 151.82C163.271 151.82 166.424 154.283 167.098 157.674C167.184 158.111 167.227 158.556 167.227 159V176.665H167.234ZM153.296 180.239C153.812 182.101 153.654 184.198 152.83 186.053C152.049 187.811 150.702 189.254 148.982 190.215C148.337 190.568 147.499 190.332 147.205 189.699L147.183 189.659C146.947 189.15 147.162 188.562 147.692 188.268C149.254 187.399 150.078 186.164 150.501 185.204C151.125 183.806 151.246 182.186 150.867 180.788C150.716 180.252 151.031 179.697 151.59 179.481C152.293 179.213 153.11 179.566 153.296 180.239Z" fill="white"/>
<path d="M208.027 131.099C195.516 114.107 182.579 96.5342 175.558 78.9424L173.484 73.7533L169.52 77.7545C169.333 77.9428 151.06 96.4493 133.032 122.183C122.42 137.345 113.951 152.026 107.855 165.831C105.304 171.615 102.904 177.494 101.175 183.57C93.4148 210.819 93.304 230.51 92.8345 233.098C92.7785 233.388 92.7225 233.684 92.6734 233.98C92.6312 234.277 92.582 234.58 92.5398 234.877C92.4976 235.173 92.4761 235.483 92.4408 235.787C92.4124 236.09 92.384 236.393 92.3694 236.696C92.2627 237.93 92.3426 239.15 92.4502 240.364C92.4909 240.674 92.5248 240.971 92.5655 241.281C92.5858 241.429 92.5993 241.578 92.6266 241.733C92.6539 241.881 92.6811 242.036 92.7084 242.185C92.7288 242.34 92.756 242.488 92.7833 242.636C92.8106 242.785 92.8448 242.933 92.879 243.075C92.9612 243.372 93.0365 243.662 93.1118 243.952C93.153 244.093 93.1941 244.242 93.2352 244.39C93.2763 244.532 93.3243 244.674 93.3724 244.822C93.4615 245.119 93.5575 245.409 93.6467 245.692C93.7427 245.982 93.8389 246.232 93.9419 246.502C93.99 246.63 94.038 246.765 94.0861 246.9C94.0861 246.9 94.1067 246.947 94.1273 247.001C94.1479 247.049 94.1685 247.096 94.1685 247.096L94.1892 247.143L94.2098 247.197L94.2166 247.217L94.2648 247.319C94.7598 248.392 95.3171 249.411 95.9161 250.363C96.0676 250.599 96.2122 250.842 96.3775 251.058C96.5429 251.281 96.7082 251.497 96.8736 251.707C97.2112 252.132 97.5558 252.538 97.9074 252.923C99.2721 254.483 100.797 255.633 102.149 256.533C102.826 256.993 103.502 257.345 104.13 257.657C104.752 257.962 105.332 258.213 105.856 258.423C106.388 258.613 106.851 258.796 107.265 258.912C107.687 259.028 108.046 259.13 108.336 259.184C108.909 259.307 109.22 259.369 109.22 259.369C109.22 259.369 108.923 259.246 108.371 259.016C108.095 258.901 107.75 258.765 107.37 258.568C106.99 258.372 106.555 258.135 106.072 257.864C105.596 257.587 105.071 257.262 104.506 256.89C104.229 256.707 103.94 256.504 103.65 256.294C103.367 256.071 103.077 255.841 102.781 255.591C102.036 254.962 101.263 254.239 100.498 253.435C100.498 253.435 103.349 252.006 106.139 250.51C108.928 249.02 111.655 247.456 111.655 247.456C111.655 247.456 110.908 247.771 109.773 248.233C108.645 248.696 107.116 249.299 105.567 249.875C104.017 250.457 102.481 250.979 101.305 251.367C100.136 251.762 99.3474 252.01 99.3474 252.01C99.306 251.962 99.2716 251.915 99.2371 251.868C98.9546 251.496 98.6791 251.105 98.4105 250.699C98.1489 250.294 97.8803 249.889 97.6602 249.444C97.1993 248.566 96.7869 247.635 96.4298 246.677L96.3886 246.562C96.4023 246.609 96.3886 246.562 96.3886 246.569L96.3749 246.515L96.3063 246.326C96.2651 246.198 96.2239 246.07 96.1828 245.935C96.1279 245.793 96.0798 245.644 96.0387 245.496C96.0387 245.496 96.7376 245.181 97.7825 244.705C98.8344 244.222 100.225 243.578 101.609 242.915C104.384 241.6 107.118 240.232 107.118 240.232C107.118 240.232 106.399 240.412 105.313 240.679C104.227 240.946 102.761 241.286 101.308 241.572C99.8562 241.865 98.3833 242.138 97.2631 242.331C96.1567 242.523 95.403 242.643 95.403 242.643C95.3758 242.434 95.3418 242.238 95.3077 242.029C95.2873 241.901 95.2669 241.766 95.2465 241.638C95.2261 241.497 95.2195 241.368 95.206 241.234C95.1859 240.964 95.1659 240.694 95.1458 240.418C95.1396 240.148 95.1333 239.878 95.1271 239.602L95.1212 239.191L95.1291 238.786C95.1298 238.51 95.1304 238.24 95.145 237.964C95.1594 237.701 95.1739 237.431 95.1953 237.155C95.2456 236.387 95.3789 235.592 95.5191 234.817C95.5191 234.817 98.4937 233.826 101.441 232.762C102.907 232.24 104.374 231.697 105.481 231.275C106.581 230.86 107.315 230.579 107.315 230.579C107.315 230.579 107.142 230.605 106.844 230.658C106.54 230.705 106.111 230.778 105.593 230.858C104.569 231.01 103.2 231.209 101.811 231.367C99.045 231.711 96.2105 231.926 96.2105 231.926C96.2732 231.724 96.329 231.522 96.3917 231.32C96.4544 231.111 96.524 230.909 96.6006 230.7C98.8146 224.241 100.904 217.728 102.448 211.078C103.755 205.466 104.633 199.771 105.918 194.152C108.287 183.858 112.079 173.904 116.595 164.336C121.028 154.936 126.186 145.868 131.8 137.092C134.124 133.45 136.532 129.856 139.015 126.317C151.82 108.012 164.747 93.4497 170.97 86.7441C178.588 103.353 190.513 119.555 202.079 135.27C220.817 160.725 240.189 187.043 240.122 214.109C240.1 222.886 238.295 231.632 234.805 239.726C231.427 247.578 226.488 254.772 220.356 260.824C217.3 263.836 213.955 266.565 210.375 268.969C206.422 271.616 202.434 274.302 197.669 275.335C189.833 277.035 182.973 272.98 177.255 268.078C176.42 267.355 175.579 266.713 174.716 266.043C173.861 265.387 173.012 264.765 172.129 264.264C171.915 264.128 171.701 263.993 171.48 263.864C171.259 263.736 171.038 263.607 170.824 263.485C170.603 263.357 170.382 263.255 170.161 263.146C169.934 263.038 169.727 262.923 169.499 262.848C169.271 262.76 169.05 262.672 168.836 262.584C168.725 262.536 168.608 262.502 168.497 262.475C168.387 262.441 168.276 262.4 168.166 262.36C168.055 262.319 167.945 262.285 167.834 262.244L167.648 262.176L167.496 262.135C167.289 262.081 167.081 262.027 166.881 261.972L166.729 261.938L166.563 261.897C166.46 261.877 166.349 261.856 166.239 261.836C166.135 261.815 166.024 261.795 165.914 261.767C165.81 261.747 165.707 261.726 165.603 261.713C165.389 261.685 165.181 261.658 164.981 261.63C164.774 261.589 164.573 261.562 164.366 261.541C164.166 261.514 163.965 261.486 163.772 261.466C163.572 261.452 163.371 261.438 163.178 261.424C162.791 261.389 162.404 261.395 162.023 261.394C161.837 261.393 161.65 261.406 161.463 261.406C161.284 261.399 161.097 261.405 160.917 261.405C160.558 261.41 160.212 261.43 159.867 261.456C159.175 261.508 158.518 261.614 157.903 261.714C156.679 261.893 155.607 262.167 154.722 262.441C154.279 262.595 153.892 262.688 153.559 262.815C153.221 262.929 152.93 263.023 152.702 263.117C152.238 263.311 151.989 263.405 151.989 263.405C151.989 263.405 152.245 263.365 152.729 263.278C152.964 263.232 153.261 263.199 153.607 263.153C153.78 263.133 153.96 263.106 154.16 263.093C154.361 263.06 154.568 263.034 154.789 263C155.674 262.902 156.732 262.817 157.921 262.826C158.522 262.807 159.151 262.816 159.815 262.858C160.14 262.879 160.478 262.907 160.817 262.948C160.99 262.969 161.162 262.989 161.335 263.01C161.515 263.031 161.687 263.045 161.867 263.065C162.22 263.12 162.586 263.148 162.952 263.223C163.132 263.257 163.318 263.291 163.505 263.325C163.691 263.366 163.878 263.414 164.064 263.455C164.437 263.537 164.81 263.666 165.197 263.748C165.294 263.761 165.391 263.789 165.48 263.822C165.577 263.843 165.667 263.877 165.763 263.904C165.853 263.924 165.95 263.958 166.04 263.986L166.185 264.026L166.337 264.081C166.537 264.149 166.744 264.223 166.951 264.298L167.11 264.352C167.062 264.339 167.103 264.352 167.103 264.352L167.117 264.359L167.152 264.373L167.228 264.407L167.511 264.529L167.794 264.657C167.89 264.698 167.987 264.732 168.084 264.786C168.27 264.894 168.457 264.976 168.65 265.071C168.843 265.152 169.03 265.267 169.223 265.369C169.409 265.484 169.602 265.572 169.796 265.694C170.168 265.944 170.555 266.167 170.934 266.458C171.314 266.722 171.693 267.026 172.08 267.317C172.459 267.601 172.838 267.906 173.225 268.217C173.418 268.379 173.604 268.534 173.797 268.697C173.99 268.866 174.184 269.035 174.377 269.204C174.57 269.366 174.763 269.542 174.956 269.718C175.156 269.893 175.349 270.076 175.549 270.252C175.742 270.434 175.935 270.617 176.135 270.786C176.328 270.961 176.528 271.137 176.728 271.32C177.128 271.678 177.535 272.043 177.935 272.408C178.349 272.773 178.77 273.145 179.184 273.523C179.604 273.895 180.039 274.294 180.473 274.646C181.356 275.362 182.281 276.072 183.254 276.749C183.744 277.094 184.241 277.426 184.751 277.75C185.262 278.048 185.787 278.339 186.325 278.617C186.594 278.753 186.857 278.888 187.133 279.017C189.977 280.345 192.954 281.195 196.106 281.385C198.842 281.554 201.608 281.244 204.223 280.435C209.397 278.829 213.96 275.45 218.192 272.231C224.473 267.461 229.975 261.724 234.442 255.297C238.958 248.797 242.404 241.585 244.6 234.02C246.475 227.56 247.425 220.848 247.442 214.127C247.514 184.749 227.44 157.478 208.027 131.099Z" fill="white"/>
</svg>
