<svg width="633" height="594" viewBox="0 0 633 594" fill="none" xmlns="http://www.w3.org/2000/svg">
<path d="M290.663 360.68C289.914 360.652 288.827 360.58 287.432 360.427C286.057 360.224 284.384 359.934 282.515 359.46C281.914 359.319 281.326 359.121 280.712 358.92C280.098 358.713 279.477 358.492 278.84 358.244C278.84 358.244 281.427 356.026 283.904 353.754C286.389 351.49 288.764 349.185 288.764 349.185C288.764 349.185 288.061 349.714 286.988 350.503C285.906 351.292 284.448 352.327 282.947 353.353C281.446 354.379 279.911 355.389 278.745 356.139C278.157 356.514 277.662 356.823 277.323 357.04C276.974 357.256 276.782 357.379 276.782 357.379C276.715 357.341 276.646 357.317 276.588 357.28C275.577 356.784 274.571 356.216 273.595 355.598C273.112 355.283 272.62 354.968 272.157 354.615C271.703 354.263 271.259 353.892 270.824 353.515L270.717 353.423C270.758 353.465 270.717 353.423 270.717 353.429L270.676 353.387L270.513 353.232L270.178 352.921C270.056 352.808 269.925 352.688 269.794 352.568C269.794 352.568 272.421 350.509 274.973 348.406C277.533 346.309 280.018 344.169 280.018 344.169C280.018 344.169 279.28 344.572 278.161 345.169C277.033 345.758 275.516 346.535 273.964 347.303C273.193 347.678 272.413 348.058 271.67 348.409C270.927 348.759 270.249 349.069 269.652 349.338C268.467 349.872 267.654 350.224 267.654 350.224C267.528 350.045 267.392 349.873 267.257 349.7L266.994 349.355C266.915 349.245 266.837 349.122 266.758 349.006C266.592 348.772 266.435 348.539 266.278 348.307C266.13 348.068 265.99 347.83 265.842 347.591C265.842 347.591 265.788 347.502 265.733 347.414C265.679 347.319 265.625 347.23 265.625 347.23L265.443 346.852C265.322 346.602 265.192 346.352 265.071 346.102C264.968 345.853 264.856 345.597 264.743 345.348C264.449 344.617 264.189 343.888 263.964 343.155C263.964 343.155 266.937 341.264 269.827 339.322C272.733 337.387 275.564 335.409 275.564 335.409C275.564 335.409 272.625 336.735 269.552 337.973C266.534 339.189 263.374 340.31 263.374 340.31C263.318 339.895 263.261 339.487 263.221 339.08C263.165 338.548 263.117 338.03 263.104 337.495C263.093 336.953 263.098 336.419 263.103 335.885C263.123 334.805 263.16 333.732 263.195 332.673C263.258 331.602 263.313 330.518 263.348 329.471C263.362 328.944 263.366 328.423 263.361 327.908C263.364 327.393 263.378 326.86 263.356 326.344C263.328 325.312 263.246 324.309 263.066 323.338C263.016 322.839 262.903 322.355 262.799 321.885C262.756 321.648 262.668 321.413 262.598 321.18C262.528 320.953 262.467 320.721 262.37 320.499C262.281 320.284 262.175 320.068 262.105 319.841C262.07 319.728 262.016 319.62 261.963 319.512C261.91 319.404 261.857 319.295 261.813 319.188C261.76 319.08 261.715 318.979 261.662 318.871L261.571 318.682L261.494 318.546C261.377 318.355 261.269 318.171 261.152 317.987L261.075 317.845L260.972 317.7L260.775 317.412L260.578 317.131C260.507 317.035 260.452 316.939 260.381 316.85C260.12 316.485 259.885 316.123 259.595 315.789C259.45 315.623 259.314 315.456 259.178 315.29C259.024 315.129 258.879 314.969 258.733 314.815C258.588 314.655 258.442 314.501 258.287 314.353C258.142 314.199 257.995 314.051 257.85 313.898C256.706 312.714 255.389 311.752 254.248 310.894C253.078 310.061 251.895 309.409 250.975 308.86C250.496 308.604 250.069 308.365 249.672 308.18C249.275 307.995 248.947 307.821 248.659 307.703C248.092 307.453 247.787 307.327 247.787 307.327C247.787 307.327 248.045 307.495 248.528 307.817C248.77 307.971 249.043 308.18 249.374 308.419C249.707 308.645 250.052 308.937 250.457 309.246C250.646 309.403 250.843 309.567 251.057 309.746C251.28 309.918 251.502 310.104 251.732 310.296C252.193 310.675 252.669 311.093 253.149 311.558C253.386 311.784 253.621 312.029 253.856 312.274C254.099 312.526 254.36 312.773 254.611 313.039C255.104 313.569 255.595 314.133 256.047 314.745C256.158 314.903 256.269 315.054 256.388 315.206C256.517 315.359 256.636 315.517 256.746 315.675C256.866 315.834 256.985 315.992 257.095 316.157C257.205 316.321 257.314 316.492 257.424 316.656C257.644 316.991 257.835 317.35 258.036 317.704C258.09 317.792 258.128 317.88 258.173 317.968C258.21 318.062 258.265 318.15 258.31 318.238C258.356 318.326 258.411 318.415 258.457 318.496L258.534 318.632L258.602 318.781C258.692 318.976 258.79 319.179 258.881 319.374L258.957 319.523C258.934 319.482 258.948 319.522 258.949 319.516L258.956 319.536L258.971 319.57L258.991 319.649L259.101 319.931L259.21 320.219C259.246 320.319 259.283 320.42 259.31 320.519C259.365 320.719 259.411 320.924 259.465 321.13C259.529 321.33 259.557 321.541 259.611 321.747C259.648 321.951 259.72 322.159 259.748 322.369C259.803 322.797 259.885 323.226 259.903 323.677C259.948 324.124 259.958 324.58 259.958 325.05C259.957 325.284 259.966 325.519 259.966 325.747C259.966 325.982 259.966 326.217 259.966 326.458C259.965 326.692 259.956 326.933 259.947 327.173C259.937 327.42 259.919 327.66 259.901 327.906C259.891 328.153 259.881 328.4 259.854 328.646C259.835 328.898 259.816 329.151 259.797 329.404C259.741 329.915 259.704 330.414 259.665 330.932C259.626 331.444 259.587 331.963 259.549 332.481C259.509 333.013 259.469 333.544 259.428 334.082C259.397 334.621 259.347 335.171 259.341 335.712C259.329 336.799 259.35 337.922 259.448 339.062C259.502 339.627 259.554 340.211 259.661 340.772C259.766 341.34 259.89 341.903 260.04 342.474C260.123 342.76 260.189 343.045 260.281 343.332C260.373 343.619 260.465 343.906 260.549 344.192C260.641 344.473 260.768 344.762 260.869 345.043C260.978 345.337 261.098 345.607 261.243 345.884C261.754 346.996 262.406 348.093 263.121 349.161L263.405 349.559C263.5 349.69 263.596 349.814 263.7 349.945C263.795 350.07 263.89 350.2 264.003 350.326C264.107 350.45 264.211 350.575 264.316 350.7C264.533 350.95 264.741 351.2 264.959 351.444C265.194 351.682 265.421 351.92 265.648 352.158C265.761 352.277 265.875 352.396 265.997 352.516C266.119 352.635 266.241 352.755 266.363 352.874C266.608 353.107 266.843 353.346 267.106 353.567C267.361 353.78 267.609 353.974 267.856 354.181L268.226 354.481L268.416 354.632L268.466 354.668L268.531 354.725L268.639 354.804C269.177 355.208 269.733 355.6 270.298 355.98C270.573 356.162 270.856 356.352 271.149 356.523C271.442 356.688 271.727 356.852 272.03 357.01C273.206 357.642 274.395 358.204 275.566 358.673C276.755 359.13 277.934 359.489 279.046 359.803C280.168 360.106 281.224 360.364 282.252 360.517C284.299 360.834 286.045 360.966 287.458 361.003C288.176 360.983 288.805 360.989 289.341 360.943C289.886 360.911 290.342 360.885 290.703 360.846C291.426 360.761 291.805 360.723 291.805 360.723C291.805 360.723 291.404 360.707 290.663 360.68Z" fill="white"/>
<path d="M332.957 364.459C332.283 364.701 331.276 365.01 329.956 365.374C329.623 365.462 329.274 365.536 328.907 365.609C328.532 365.683 328.148 365.756 327.737 365.822C326.917 365.968 326.027 366.106 325.059 366.209C324.763 366.244 324.449 366.278 324.126 366.306C323.969 366.323 323.813 366.334 323.647 366.344C323.49 366.355 323.325 366.358 323.159 366.369C322.506 366.391 321.819 366.405 321.114 366.392C321.114 366.392 322.109 363.418 322.982 360.441C323.427 358.946 323.829 357.457 324.137 356.327C324.427 355.196 324.624 354.438 324.624 354.438C324.624 354.438 324.306 355.201 323.815 356.328C323.316 357.434 322.627 358.918 321.904 360.402C321.172 361.878 320.405 363.361 319.81 364.466C319.215 365.577 318.801 366.311 318.801 366.311C318.723 366.31 318.645 366.302 318.567 366.3C318.28 366.282 317.976 366.257 317.68 366.231C317.376 366.199 317.081 366.161 316.778 366.115C316.17 366.024 315.563 365.926 314.956 365.802C314.341 365.684 313.725 365.553 313.11 365.395C312.504 365.251 311.889 365.086 311.284 364.875L311.172 364.84L311.146 364.833C311.206 364.854 311.146 364.826 311.146 364.833L311.085 364.812L310.852 364.727C310.696 364.664 310.532 364.608 310.377 364.552C310.195 364.489 310.014 364.419 309.832 364.355C309.832 364.355 310.955 361.51 311.974 358.649C312.496 357.229 312.992 355.795 313.36 354.726C313.719 353.65 313.959 352.933 313.959 352.933C313.959 352.933 313.851 353.091 313.672 353.375C313.484 353.646 313.216 354.042 312.903 354.511C312.25 355.461 311.374 356.714 310.446 357.967C308.607 360.473 306.569 362.955 306.569 362.955C306.354 362.837 306.138 362.727 305.914 362.609L305.483 362.374C305.346 362.298 305.208 362.216 305.07 362.133C304.795 361.968 304.519 361.809 304.235 361.644C303.977 361.472 303.702 361.301 303.436 361.129L303.04 360.868L302.654 360.594C302.396 360.416 302.138 360.237 301.881 360.053C301.64 359.868 301.392 359.663 301.152 359.465C300.475 358.885 299.816 358.293 299.192 357.68C299.192 357.68 300.706 354.875 302.133 352.048C303.569 349.228 304.909 346.387 304.909 346.387C304.909 346.387 303.101 348.646 301.111 350.875C300.124 351.986 299.103 353.097 298.314 353.924C297.923 354.338 297.595 354.666 297.364 354.909C297.134 355.139 297.001 355.277 297.001 355.277C296.712 354.911 296.431 354.545 296.16 354.173C295.438 353.218 294.795 352.245 294.186 351.259C293.57 350.26 292.988 349.227 292.407 348.215C292.129 347.709 291.834 347.21 291.538 346.71L291.1 345.974L290.67 345.212C290.088 344.206 289.506 343.227 288.862 342.308C288.709 342.071 288.539 341.854 288.387 341.611C288.226 341.374 288.065 341.145 287.904 340.915C287.582 340.455 287.242 340.014 286.885 339.587C286.544 339.16 286.152 338.759 285.776 338.365C285.597 338.162 285.401 337.971 285.204 337.774C285.016 337.584 284.828 337.387 284.614 337.209C284.409 337.032 284.203 336.854 284.006 336.684C283.903 336.595 283.792 336.513 283.68 336.431L283.354 336.198L283.036 335.959L282.847 335.822L282.684 335.725C282.486 335.588 282.28 335.451 282.074 335.314L281.928 335.204L281.756 335.108L281.42 334.901L281.084 334.702C280.973 334.633 280.861 334.571 280.749 334.509C280.301 334.274 279.879 334.032 279.413 333.837C279.188 333.733 278.982 333.616 278.766 333.505C278.542 333.407 278.326 333.31 278.11 333.206C277.679 333.005 277.23 332.836 276.798 332.668C276.366 332.507 275.925 332.359 275.501 332.218C275.086 332.064 274.671 331.923 274.256 331.795C273.434 331.54 272.629 331.332 271.857 331.165C271.459 331.084 271.095 330.997 270.74 330.918C270.384 330.838 270.029 330.771 269.691 330.712C269.005 330.586 268.372 330.495 267.79 330.418C267.2 330.354 266.67 330.291 266.227 330.25C265.767 330.215 265.385 330.168 265.063 330.155C264.429 330.111 264.09 330.098 264.09 330.098C264.09 330.098 264.41 330.171 265.017 330.308C265.312 330.367 265.675 330.474 266.091 330.581C266.515 330.689 267.009 330.811 267.554 330.955C268.091 331.104 268.671 331.275 269.294 331.473C269.916 331.678 270.556 331.923 271.265 332.156C271.974 332.409 272.691 332.689 273.424 333.016C273.795 333.183 274.157 333.363 274.537 333.543C274.925 333.711 275.305 333.898 275.693 334.092C276.072 334.299 276.477 334.486 276.847 334.713C277.045 334.824 277.234 334.934 277.432 335.051C277.613 335.168 277.802 335.291 278 335.415C278.396 335.636 278.774 335.89 279.17 336.137C279.264 336.199 279.359 336.267 279.445 336.329L279.728 336.534L280.003 336.733L280.14 336.836L280.286 336.945C280.475 337.102 280.672 337.259 280.869 337.416L281.015 337.533C280.972 337.498 281.015 337.533 281.006 337.526L281.023 337.546L281.057 337.573L281.117 337.635C281.203 337.71 281.297 337.785 281.383 337.86L281.648 338.085C281.743 338.16 281.837 338.235 281.914 338.317C282.076 338.48 282.247 338.643 282.418 338.813C282.598 338.977 282.742 339.16 282.904 339.336C283.058 339.519 283.228 339.689 283.381 339.886C283.679 340.265 283.985 340.658 284.265 341.057C284.868 341.842 285.409 342.7 285.94 343.598C286.067 343.828 286.202 344.057 286.328 344.286C286.454 344.516 286.589 344.752 286.715 344.988C286.85 345.217 286.985 345.447 287.111 345.683C287.237 345.919 287.372 346.155 287.498 346.391C288.011 347.369 288.532 348.367 289.062 349.365C289.322 349.89 289.609 350.37 289.886 350.882C290.182 351.388 290.468 351.894 290.763 352.407C291.075 352.927 291.396 353.447 291.735 353.968C291.904 354.231 292.073 354.488 292.251 354.752C292.429 355.009 292.616 355.252 292.803 355.503C293.559 356.505 294.393 357.502 295.323 358.467C295.554 358.704 295.784 358.949 296.024 359.187C296.271 359.425 296.52 359.643 296.768 359.875C297.016 360.106 297.299 360.318 297.565 360.537C297.83 360.755 298.087 360.98 298.379 361.193C299.477 362.04 300.68 362.877 301.946 363.56C302.274 363.733 302.592 363.906 302.92 364.079C303.084 364.162 303.239 364.251 303.403 364.328C303.575 364.404 303.739 364.487 303.903 364.57C304.239 364.73 304.567 364.883 304.903 365.042C305.249 365.182 305.585 365.328 305.931 365.475C306.103 365.545 306.268 365.608 306.44 365.671C306.622 365.734 306.804 365.798 306.976 365.854C307.331 365.981 307.685 366.1 308.04 366.22C308.394 366.34 308.723 366.433 309.061 366.532C309.225 366.589 309.398 366.639 309.563 366.682L309.814 366.759L309.883 366.781L309.943 366.795L309.978 366.809L310.108 366.845C311.545 367.251 312.985 367.49 314.391 367.669C315.094 367.762 315.789 367.834 316.475 367.886C316.814 367.912 317.153 367.932 317.492 367.951C317.822 367.964 318.153 367.956 318.484 367.956C319.798 367.945 321.043 367.881 322.202 367.774C322.786 367.718 323.353 367.668 323.894 367.577C324.426 367.487 324.95 367.389 325.439 367.284C326.435 367.075 327.336 366.85 328.149 366.611C328.954 366.378 329.68 366.144 330.312 365.888C330.934 365.625 331.495 365.401 331.952 365.169C332.408 364.95 332.795 364.77 333.094 364.601C333.683 364.271 333.999 364.103 333.999 364.103C333.999 364.103 333.64 364.224 332.957 364.459Z" fill="white"/>
<path d="M354.71 265.262C355.466 262.237 354.78 258.834 352.847 256.188C351.755 254.692 350.34 253.523 348.736 252.778C348.512 249.479 347.098 246.376 344.702 243.965C342.37 241.627 339.324 240.137 336.012 239.7C335.752 237.59 334.765 235.63 333.161 234.108C331.284 232.331 328.805 231.351 326.158 231.351C321.382 231.351 317.278 234.604 316.41 239.073C316.305 239.641 316.242 240.222 316.242 240.804V310.898C316.242 311.826 316.382 312.734 316.662 313.616C317.257 315.517 318.511 317.228 320.177 318.437C321.907 319.685 323.98 320.351 326.158 320.351C328.672 320.351 331.06 319.456 332.902 317.829C334.471 316.444 335.514 314.628 335.907 312.649C339.247 312.231 342.328 310.742 344.674 308.396C347.077 305.992 348.498 302.902 348.729 299.61C349.605 299.225 350.431 298.722 351.194 298.107C354.591 295.351 356.013 290.889 354.808 287.002C356.321 285.794 357.581 284.291 358.478 282.619C359.549 280.639 360.109 278.405 360.109 276.171C360.109 271.951 358.107 267.933 354.71 265.262ZM339.737 273.048C337.769 273.983 336.999 276.223 338.007 278.039C338.715 279.313 340.115 280.051 341.565 280.051C342.181 280.051 342.805 279.921 343.393 279.64C344.338 279.189 345.039 278.425 345.368 277.478H357.581C357.203 280.737 355.41 283.749 352.63 285.715L351.902 286.231L352.231 287.022C353.526 290.157 352.413 294.103 349.577 296.402C349.065 296.814 348.519 297.16 347.945 297.435L342.784 293.247V291.549C342.987 291.49 343.19 291.412 343.393 291.32C345.354 290.386 346.124 288.152 345.123 286.329C344.114 284.513 341.698 283.795 339.737 284.729C337.769 285.663 336.999 287.904 338.007 289.72C338.505 290.628 339.366 291.255 340.333 291.549V294.273L346.306 299.12C346.054 305.143 341.033 310.101 334.744 310.48L334.59 310.487L328.581 305.607V302.778C328.791 302.713 328.987 302.641 329.19 302.55C331.151 301.615 331.922 299.375 330.92 297.559C329.912 295.743 327.496 295.024 325.535 295.958C324.582 296.409 323.882 297.173 323.553 298.121C323.231 299.061 323.315 300.067 323.805 300.943C324.309 301.851 325.164 302.484 326.137 302.772V306.633L333.322 312.473L333.483 312.303C332.797 315.602 329.73 318.078 326.165 318.078C322.902 318.078 319.96 315.981 319.015 312.982C318.805 312.309 318.7 311.604 318.7 310.898V289.158H323.553C323.623 289.347 323.7 289.537 323.805 289.72C324.512 291 325.913 291.732 327.37 291.732C327.986 291.732 328.609 291.601 329.19 291.32C331.151 290.393 331.929 288.152 330.92 286.336C329.912 284.513 327.496 283.801 325.535 284.729C324.554 285.199 323.875 285.99 323.56 286.891H318.7V265.098H323.56C323.623 265.288 323.707 265.477 323.805 265.66C324.295 266.542 325.122 267.195 326.137 267.496C326.543 267.613 326.956 267.672 327.37 267.672C327.993 267.672 328.616 267.535 329.19 267.261C331.151 266.326 331.929 264.086 330.92 262.27C329.912 260.454 327.496 259.735 325.535 260.669C324.554 261.133 323.875 261.93 323.56 262.832H318.7V252.569L322.692 256.782H335.199C335.85 258.01 337.216 258.866 338.792 258.866C340.998 258.866 342.791 257.2 342.791 255.156C342.791 253.118 340.998 251.452 338.792 251.452C336.824 251.452 335.185 252.778 334.856 254.509H323.798L318.7 249.133V240.804C318.7 240.359 318.742 239.909 318.826 239.478C319.484 236.081 322.572 233.624 326.165 233.624C330.073 233.624 333.315 236.557 333.609 240.255L330.85 243.155C330.283 242.868 329.632 242.705 328.945 242.705C326.739 242.705 324.947 244.37 324.947 246.415C324.947 248.46 326.739 250.119 328.945 250.119C331.151 250.119 332.944 248.453 332.944 246.415C332.944 245.84 332.804 245.292 332.545 244.808L335.304 241.908C341.446 242.541 346.243 247.552 346.32 253.536L346.327 254.3L347.091 254.581C348.547 255.117 349.836 256.109 350.823 257.462C352.511 259.768 353.022 262.786 352.154 265.34L352.147 265.353H337.174L329.331 273.022C328.749 272.715 328.077 272.539 327.363 272.539C325.157 272.539 323.364 274.205 323.364 276.243C323.364 278.288 325.157 279.953 327.363 279.953C329.569 279.953 331.361 278.288 331.361 276.243C331.361 275.694 331.228 275.172 330.997 274.701L338.225 267.626H353.87C356.034 269.625 357.378 272.33 357.623 275.211H345.375C345.305 275.021 345.221 274.832 345.123 274.649C344.107 272.833 341.691 272.114 339.737 273.048ZM343.036 276.785C342.91 277.151 342.637 277.445 342.272 277.621C341.509 277.987 340.571 277.706 340.185 277.001C339.793 276.295 340.094 275.433 340.851 275.067C341.075 274.963 341.32 274.91 341.558 274.91C342.118 274.91 342.665 275.191 342.938 275.688C343.127 276.034 343.162 276.419 343.036 276.785ZM342.272 289.302C341.509 289.667 340.571 289.386 340.185 288.681C339.793 287.975 340.094 287.113 340.851 286.747C341.075 286.643 341.32 286.591 341.558 286.591C342.118 286.591 342.665 286.871 342.938 287.368C343.33 288.073 343.029 288.942 342.272 289.302ZM328.07 300.531C327.307 300.89 326.375 300.609 325.983 299.91C325.794 299.564 325.759 299.179 325.885 298.813C326.011 298.447 326.284 298.147 326.648 297.977C326.879 297.866 327.118 297.814 327.356 297.814C327.916 297.814 328.462 298.101 328.735 298.597C329.127 299.303 328.826 300.165 328.07 300.531ZM326.648 286.747C326.879 286.643 327.118 286.591 327.356 286.591C327.916 286.591 328.462 286.871 328.735 287.368C329.127 288.073 328.826 288.942 328.063 289.302C327.307 289.667 326.368 289.386 325.976 288.681C325.591 287.975 325.892 287.113 326.648 286.747ZM326.648 262.688C326.879 262.583 327.118 262.531 327.356 262.531C327.916 262.531 328.462 262.812 328.735 263.308C329.127 264.014 328.826 264.883 328.063 265.242C327.699 265.418 327.279 265.451 326.886 265.334C326.487 265.216 326.165 264.961 325.976 264.621C325.591 263.916 325.892 263.047 326.648 262.688ZM337.237 255.156C337.237 254.365 337.93 253.719 338.785 253.719C339.639 253.719 340.34 254.365 340.34 255.156C340.34 255.946 339.639 256.593 338.785 256.593C337.93 256.593 337.237 255.946 337.237 255.156ZM330.486 246.415C330.486 247.206 329.793 247.846 328.938 247.846C328.084 247.846 327.391 247.206 327.391 246.415C327.391 245.625 328.084 244.978 328.938 244.978C329.793 244.978 330.486 245.625 330.486 246.415ZM328.91 276.249C328.91 277.04 328.21 277.68 327.363 277.68C326.508 277.68 325.808 277.04 325.808 276.249C325.808 275.452 326.508 274.812 327.363 274.812C328.21 274.812 328.91 275.452 328.91 276.249Z" fill="white"/>
<path d="M316.07 239.073C315.181 234.598 310.989 231.351 306.095 231.351C303.393 231.351 300.849 232.324 298.936 234.101C297.295 235.624 296.277 237.584 296.012 239.694C292.63 240.131 289.505 241.628 287.126 243.96C284.668 246.371 283.221 249.48 282.999 252.779C281.35 253.518 279.91 254.687 278.785 256.183C276.807 258.829 276.105 262.233 276.879 265.258C273.403 267.93 271.354 271.947 271.354 276.168C271.354 278.409 271.934 280.636 273.024 282.616C273.948 284.288 275.231 285.791 276.786 287C275.546 290.887 277.001 295.349 280.483 298.112C281.257 298.727 282.103 299.23 282.999 299.608C283.235 302.901 284.69 305.998 287.148 308.395C289.548 310.747 292.701 312.237 296.12 312.648C296.521 314.635 297.589 316.444 299.201 317.836C301.079 319.456 303.529 320.351 306.095 320.351C308.323 320.351 310.444 319.691 312.215 318.437C313.92 317.228 315.203 315.523 315.812 313.615C316.098 312.74 316.242 311.825 316.242 310.898V240.798C316.242 240.216 316.184 239.635 316.07 239.073ZM313.734 258.463C313.282 258.006 312.781 257.601 312.229 257.248C310.796 256.327 309.126 255.87 307.492 255.909C306.697 255.935 306.123 256.621 306.317 257.326C306.46 257.843 306.983 258.195 307.571 258.182C308.667 258.156 309.792 258.47 310.788 259.103C312.437 260.155 313.469 261.926 313.705 264.095H313.734V276.697C313.705 276.788 313.691 276.88 313.691 276.978C313.705 280.225 311.749 281.662 309.785 281.91C307.334 282.224 304.404 280.787 303.3 277.546C303.135 277.069 302.555 276.684 302.003 276.684C301.136 276.684 300.606 277.305 300.849 278.062C302.304 282.609 306.568 284.615 310.129 284.158C311.433 283.994 312.695 283.485 313.734 282.642V292.291C313.533 294.114 312.73 295.538 311.534 296.192C310.624 296.688 309.499 296.773 308.173 296.446C307.564 296.296 306.919 296.571 306.675 297.1C306.389 297.727 306.768 298.452 307.499 298.629C309.979 299.243 311.742 298.733 312.831 298.139C313.153 297.962 313.454 297.753 313.734 297.524V310.898C313.734 311.61 313.619 312.309 313.404 312.982C312.437 315.987 309.434 318.084 306.095 318.084C302.626 318.084 299.624 315.85 298.728 312.805C301.946 312.537 304.303 311.538 305.729 309.833C307.127 308.16 307.607 305.854 307.155 302.947C307.062 302.307 306.403 301.849 305.701 301.954C305.034 302.058 304.576 302.62 304.669 303.228C305.034 305.521 304.719 307.278 303.73 308.461C302.741 309.65 300.95 310.355 298.42 310.551V310.545L297.309 310.479C290.817 310.101 285.643 305.057 285.471 298.962C286.023 297.831 286.94 297.028 287.814 296.858C288.266 296.773 288.624 296.446 288.739 296.035C288.975 295.212 288.158 294.46 287.241 294.65C285.815 294.937 284.482 295.904 283.579 297.328C283.07 297.074 282.59 296.767 282.132 296.401C279.652 294.441 278.463 291.279 278.993 288.443C280.67 289.254 282.576 289.685 284.482 289.685C285.743 289.685 286.997 289.495 288.18 289.11C289.075 288.816 290.215 288.306 291.347 287.437C294.658 286.366 297.453 286.934 299.043 289.018C300.749 291.24 300.656 294.434 298.936 296.819C298.649 297.217 298.642 297.733 298.95 298.119C299.488 298.779 300.541 298.733 301.007 298.093C303.286 294.95 303.386 290.697 301.107 287.725C299.437 285.543 296.851 284.484 293.841 284.654C294.507 283.583 295.052 282.276 295.41 280.682C295.554 280.022 295.059 279.48 294.321 279.48C293.669 279.48 293.024 279.944 292.881 280.512C292.078 283.779 290.136 286.052 287.327 286.974C284.84 287.784 281.931 287.464 279.695 286.19L279.007 285.713C275.782 283.485 273.862 279.918 273.862 276.168C273.862 272.934 275.288 269.844 277.746 267.623C278.47 269.073 279.294 270.21 280.24 271.033C280.763 271.49 281.594 271.457 282.067 270.961V270.954C282.504 270.491 282.461 269.811 281.981 269.387C281.186 268.694 280.469 267.655 279.838 266.283C279.81 266.225 279.774 266.172 279.738 266.12L279.767 266.1L279.502 265.329C278.613 262.782 279.136 259.763 280.863 257.451C281.874 256.105 283.192 255.112 284.683 254.576L285.464 254.295V254.289C287.9 253.472 290.172 253.583 292.121 254.596C292.666 254.883 293.382 254.759 293.762 254.302C294.213 253.753 294.027 252.969 293.375 252.629C291.068 251.427 288.402 251.166 285.621 251.858C286.446 246.913 290.58 242.921 295.847 242.019C296.55 245.737 297.997 248.102 300.262 249.245C301.208 249.722 302.282 249.964 303.465 249.964C304.396 249.964 305.407 249.813 306.482 249.513C307.177 249.317 307.571 248.644 307.327 248.023C307.091 247.455 306.403 247.154 305.765 247.331C304.009 247.834 302.569 247.808 301.48 247.259C299.968 246.495 298.914 244.659 298.348 241.791L298.341 241.771C297.918 238.753 299.595 235.78 302.583 234.395C303.651 233.899 304.848 233.618 306.088 233.618C309.771 233.618 312.924 236.081 313.598 239.472C313.684 239.909 313.727 240.354 313.727 240.798V258.463H313.734ZM299.796 262.037C300.312 263.899 300.154 265.996 299.33 267.851C298.549 269.609 297.202 271.052 295.482 272.013C294.837 272.366 293.998 272.13 293.705 271.497L293.683 271.457C293.447 270.948 293.662 270.36 294.192 270.066C295.754 269.197 296.578 267.962 297.001 267.002C297.624 265.604 297.746 263.984 297.367 262.586C297.216 262.05 297.531 261.495 298.09 261.279C298.793 261.011 299.609 261.364 299.796 262.037Z" fill="white"/>
<path d="M354.527 212.897C342.016 195.905 329.079 178.332 322.058 160.74L319.984 155.551L316.02 159.552C315.833 159.741 297.56 178.247 279.532 203.981C268.919 219.143 260.451 233.824 254.355 247.629C251.804 253.413 249.404 259.292 247.675 265.368C239.915 292.617 239.804 312.308 239.334 314.896C239.278 315.186 239.222 315.482 239.173 315.778C239.131 316.075 239.082 316.378 239.04 316.675C238.998 316.971 238.976 317.281 238.941 317.585C238.912 317.888 238.884 318.191 238.869 318.494C238.763 319.728 238.843 320.948 238.95 322.162C238.991 322.472 239.025 322.769 239.065 323.079C239.086 323.227 239.099 323.376 239.127 323.531C239.154 323.679 239.181 323.834 239.208 323.983C239.229 324.138 239.256 324.286 239.283 324.434C239.311 324.583 239.345 324.731 239.379 324.873C239.461 325.17 239.536 325.46 239.612 325.75C239.653 325.891 239.694 326.04 239.735 326.188C239.776 326.33 239.824 326.472 239.872 326.62C239.961 326.917 240.057 327.207 240.147 327.49C240.243 327.781 240.339 328.03 240.442 328.3C240.49 328.428 240.538 328.563 240.586 328.698C240.586 328.698 240.607 328.745 240.627 328.799C240.648 328.847 240.668 328.894 240.668 328.894L240.689 328.941L240.71 328.995L240.717 329.015L240.765 329.117C241.26 330.19 241.817 331.209 242.416 332.161C242.568 332.397 242.712 332.64 242.877 332.856C243.043 333.079 243.208 333.295 243.374 333.505C243.711 333.93 244.056 334.336 244.407 334.721C245.772 336.281 247.297 337.431 248.649 338.331C249.326 338.791 250.002 339.143 250.63 339.455C251.252 339.76 251.832 340.011 252.356 340.221C252.888 340.411 253.351 340.594 253.765 340.71C254.187 340.826 254.546 340.928 254.836 340.982C255.409 341.105 255.72 341.167 255.72 341.167C255.72 341.167 255.423 341.044 254.871 340.814C254.595 340.699 254.249 340.563 253.87 340.366C253.49 340.17 253.055 339.933 252.572 339.662C252.096 339.385 251.571 339.06 251.005 338.688C250.729 338.505 250.44 338.302 250.15 338.092C249.867 337.869 249.577 337.639 249.281 337.389C248.536 336.76 247.763 336.037 246.998 335.233C246.998 335.233 249.849 333.804 252.639 332.308C255.428 330.818 258.155 329.254 258.155 329.254C258.155 329.254 257.408 329.569 256.273 330.031C255.145 330.494 253.616 331.097 252.066 331.673C250.517 332.255 248.981 332.777 247.805 333.165C246.636 333.56 245.847 333.808 245.847 333.808C245.806 333.76 245.771 333.713 245.737 333.666C245.455 333.294 245.179 332.903 244.91 332.497C244.649 332.092 244.38 331.687 244.16 331.242C243.699 330.364 243.287 329.433 242.93 328.475L242.889 328.36C242.902 328.407 242.889 328.36 242.889 328.367L242.875 328.313L242.806 328.124C242.765 327.996 242.724 327.868 242.683 327.733C242.628 327.591 242.58 327.442 242.539 327.294C242.539 327.294 243.238 326.979 244.282 326.503C245.334 326.02 246.725 325.376 248.109 324.713C250.884 323.398 253.618 322.03 253.618 322.03C253.618 322.03 252.899 322.21 251.813 322.477C250.727 322.744 249.261 323.084 247.808 323.37C246.356 323.663 244.883 323.936 243.763 324.129C242.657 324.322 241.903 324.441 241.903 324.441C241.876 324.232 241.842 324.036 241.808 323.827C241.787 323.699 241.767 323.564 241.746 323.436C241.726 323.295 241.719 323.166 241.706 323.032C241.686 322.762 241.666 322.492 241.646 322.216C241.639 321.946 241.633 321.676 241.627 321.4L241.621 320.989L241.629 320.584C241.63 320.308 241.63 320.038 241.645 319.762C241.659 319.499 241.674 319.229 241.695 318.953C241.746 318.185 241.879 317.39 242.019 316.615C242.019 316.615 244.994 315.624 247.941 314.56C249.407 314.038 250.874 313.495 251.981 313.073C253.081 312.658 253.815 312.377 253.815 312.377C253.815 312.377 253.642 312.403 253.344 312.456C253.04 312.503 252.611 312.576 252.093 312.656C251.069 312.808 249.7 313.007 248.311 313.165C245.545 313.509 242.71 313.724 242.71 313.724C242.773 313.522 242.829 313.32 242.892 313.118C242.954 312.909 243.024 312.707 243.101 312.498C245.315 306.039 247.404 299.526 248.948 292.876C250.255 287.264 251.133 281.569 252.418 275.95C254.787 265.656 258.579 255.702 263.095 246.134C267.528 236.734 272.686 227.666 278.3 218.89C280.624 215.248 283.032 211.654 285.515 208.115C298.32 189.81 311.247 175.248 317.47 168.542C325.088 185.151 337.012 201.353 348.579 217.068C367.317 242.523 386.689 268.841 386.622 295.907C386.6 304.684 384.795 313.43 381.305 321.524C377.927 329.376 372.988 336.57 366.855 342.622C363.8 345.634 360.455 348.363 356.875 350.767C352.922 353.414 348.934 356.1 344.169 357.133C336.333 358.833 329.473 354.778 323.755 349.876C322.92 349.153 322.078 348.511 321.216 347.841C320.361 347.185 319.512 346.563 318.629 346.062C318.415 345.926 318.201 345.791 317.98 345.662C317.759 345.534 317.538 345.405 317.324 345.283C317.103 345.155 316.882 345.053 316.661 344.944C316.434 344.836 316.226 344.721 315.999 344.646C315.771 344.558 315.55 344.47 315.336 344.382C315.225 344.334 315.108 344.3 314.997 344.273C314.887 344.239 314.776 344.198 314.666 344.158C314.555 344.117 314.445 344.083 314.334 344.042L314.148 343.974L313.996 343.933C313.789 343.879 313.581 343.825 313.381 343.77L313.229 343.736L313.063 343.695C312.96 343.675 312.849 343.654 312.739 343.634C312.635 343.613 312.524 343.593 312.414 343.565C312.31 343.545 312.207 343.524 312.103 343.511C311.889 343.483 311.681 343.456 311.481 343.428C311.274 343.387 311.073 343.36 310.866 343.339C310.666 343.312 310.465 343.284 310.272 343.264C310.071 343.25 309.871 343.236 309.678 343.222C309.291 343.187 308.903 343.193 308.523 343.192C308.337 343.191 308.15 343.204 307.963 343.204C307.784 343.197 307.597 343.203 307.417 343.203C307.058 343.208 306.712 343.228 306.367 343.254C305.675 343.306 305.018 343.412 304.403 343.512C303.179 343.691 302.107 343.965 301.222 344.239C300.779 344.393 300.392 344.486 300.059 344.613C299.72 344.727 299.43 344.821 299.202 344.915C298.738 345.109 298.489 345.203 298.489 345.203C298.489 345.203 298.745 345.163 299.229 345.076C299.464 345.03 299.761 344.997 300.107 344.951C300.28 344.931 300.46 344.904 300.66 344.891C300.861 344.858 301.068 344.832 301.289 344.798C302.174 344.7 303.232 344.615 304.421 344.624C305.022 344.605 305.651 344.614 306.315 344.656C306.64 344.677 306.978 344.705 307.317 344.746C307.49 344.767 307.662 344.787 307.835 344.808C308.015 344.829 308.187 344.843 308.367 344.863C308.719 344.918 309.086 344.946 309.452 345.021C309.632 345.055 309.818 345.089 310.005 345.123C310.191 345.164 310.378 345.212 310.564 345.253C310.937 345.335 311.31 345.464 311.697 345.546C311.794 345.559 311.89 345.587 311.98 345.62C312.077 345.641 312.167 345.675 312.263 345.702C312.353 345.722 312.45 345.756 312.54 345.784L312.685 345.824L312.837 345.879C313.037 345.947 313.244 346.021 313.451 346.096L313.61 346.15C313.562 346.137 313.603 346.15 313.603 346.15L313.617 346.157L313.652 346.171L313.728 346.205L314.011 346.327L314.294 346.455C314.39 346.496 314.487 346.53 314.584 346.584C314.77 346.692 314.956 346.774 315.15 346.869C315.343 346.95 315.529 347.065 315.723 347.167C315.909 347.282 316.102 347.37 316.296 347.492C316.668 347.742 317.055 347.965 317.434 348.256C317.814 348.52 318.193 348.824 318.58 349.115C318.959 349.399 319.338 349.704 319.725 350.015C319.918 350.177 320.104 350.332 320.297 350.495C320.49 350.664 320.683 350.833 320.877 351.002C321.07 351.164 321.263 351.34 321.456 351.516C321.656 351.691 321.849 351.874 322.049 352.05C322.242 352.232 322.435 352.415 322.635 352.584C322.828 352.759 323.028 352.935 323.228 353.118C323.628 353.476 324.035 353.841 324.435 354.206C324.849 354.571 325.27 354.943 325.684 355.321C326.104 355.693 326.539 356.092 326.973 356.444C327.856 357.16 328.781 357.87 329.754 358.547C330.244 358.892 330.74 359.224 331.251 359.548C331.762 359.846 332.287 360.137 332.825 360.415C333.094 360.551 333.357 360.686 333.633 360.815C336.477 362.143 339.454 362.993 342.606 363.183C345.342 363.352 348.108 363.042 350.723 362.233C355.897 360.627 360.46 357.248 364.691 354.029C370.972 349.259 376.475 343.522 380.942 337.095C385.458 330.595 388.904 323.383 391.1 315.818C392.975 309.358 393.925 302.646 393.942 295.925C394.014 266.547 373.94 239.276 354.527 212.897Z" fill="white"/>
<path d="M415.959 381.245V400.535H425.707V404.245H411.886V381.245H415.959Z" fill="white"/>
<path d="M441.695 381.245L451.545 404.245H446.887L444.749 398.975H434.823L432.761 404.245H428.205L438.157 381.245H441.695ZM436.223 395.47H443.324L439.812 386.106L436.223 395.47Z" fill="white"/>
<path d="M465.232 381.245C467.319 381.245 468.98 381.776 470.221 382.831C471.474 383.874 472.104 385.275 472.104 387.027C472.104 388.223 471.761 389.266 471.086 390.148C470.405 391.018 469.419 391.658 468.134 392.067V392.118C469.54 392.291 470.717 392.886 471.672 393.909C472.62 394.92 473.097 396.173 473.097 397.67C473.097 399.755 472.34 401.373 470.832 402.531C469.317 403.676 467.243 404.245 464.596 404.245H456.171V381.245H465.232ZM464.087 390.609C465.321 390.609 466.289 390.353 466.988 389.841C467.682 389.317 468.032 388.607 468.032 387.718C468.032 385.741 466.613 384.75 463.781 384.75H460.244V390.609H464.087ZM464.138 400.74C467.396 400.74 469.025 399.614 469.025 397.363C469.025 396.186 468.63 395.355 467.854 394.856C467.071 394.363 465.907 394.114 464.367 394.114H460.244V400.74H464.138Z" fill="white"/>
<path d="M164.209 381.829V391.497H164.424L174.435 381.829H180.247L168.945 392.36L181.001 404.641H174.946L164.451 393.425H164.209V404.641H159.903V381.829H164.209Z" fill="white"/>
<path d="M209.897 393.197C209.897 396.75 208.673 399.642 206.237 401.875C203.815 404.108 200.721 405.225 196.953 405.225C193.24 405.225 190.185 404.128 187.804 401.926C185.415 399.731 184.225 396.864 184.225 393.324C184.225 391.008 184.749 388.934 185.812 387.107C186.869 385.267 188.382 383.827 190.36 382.793C192.331 381.765 194.599 381.245 197.168 381.245C200.936 381.245 203.99 382.336 206.345 384.518C208.713 386.688 209.897 389.581 209.897 393.197ZM188.746 393.07C188.746 395.544 189.506 397.574 191.033 399.16C192.574 400.753 194.572 401.546 197.034 401.546C199.469 401.546 201.474 400.772 203.035 399.211C204.596 397.657 205.376 395.608 205.376 393.07C205.376 390.736 204.596 388.801 203.035 387.259C201.488 385.705 199.483 384.924 197.007 384.924C194.652 384.924 192.688 385.686 191.114 387.208C189.533 388.731 188.746 390.685 188.746 393.07Z" fill="white"/>
<path d="M227.674 381.245C231.065 381.245 233.891 382.45 236.151 384.848L232.814 387.183C231.307 385.679 229.599 384.924 227.701 384.924C225.259 384.924 223.268 385.711 221.727 387.284C220.18 388.845 219.413 390.774 219.413 393.07C219.413 395.544 220.18 397.574 221.727 399.16C223.268 400.753 225.259 401.546 227.701 401.546C229.78 401.546 231.59 400.626 233.137 398.78L236.69 401.165C235.647 402.554 234.328 403.576 232.734 404.235C231.132 404.895 229.451 405.225 227.674 405.225C223.867 405.225 220.785 404.108 218.417 401.875C216.063 399.642 214.892 396.794 214.892 393.324C214.892 389.74 216.063 386.828 218.417 384.595C220.765 382.362 223.853 381.245 227.674 381.245Z" fill="white"/>
<path d="M253.369 381.829L263.783 404.641H258.858L256.598 399.414H246.103L243.923 404.641H239.106L249.628 381.829H253.369ZM247.583 395.938H255.091L251.377 386.65L247.583 395.938Z" fill="white"/>
<path d="M272.98 381.829V391.497H273.195L283.206 381.829H289.018L277.716 392.36L289.772 404.641H283.717L273.222 393.425H272.98V404.641H268.674V381.829H272.98Z" fill="white"/>
<path d="M305.859 381.829L316.273 404.641H311.349L309.088 399.414H298.593L296.413 404.641H291.596L302.118 381.829H305.859ZM300.073 395.938H307.581L303.868 386.65L300.073 395.938Z" fill="white"/>
<path d="M323.317 381.829L329.91 399.059L336.719 381.829H341.374L331.606 404.641H327.865L318.366 381.829H323.317Z" fill="white"/>
<path d="M350.388 381.829V396.242C350.388 397.765 350.872 399.002 351.841 399.947C352.823 400.879 354.142 401.343 355.797 401.343C357.465 401.343 358.784 400.879 359.753 399.947C360.735 399.002 361.233 397.765 361.233 396.242V381.829H365.539V396.42C365.539 398.945 364.65 401.038 362.874 402.713C361.098 404.388 358.737 405.225 355.797 405.225C352.891 405.225 350.536 404.388 348.746 402.713C346.97 401.038 346.082 398.945 346.082 396.42V381.829H350.388Z" fill="white"/>
<path d="M377.346 381.829V391.497H377.561L387.572 381.829H393.384L382.082 392.36L394.138 404.641H388.083L377.588 393.425H377.346V404.641H373.04V381.829H377.346Z" fill="white"/>
<path d="M104.524 418.225C106.184 418.225 107.659 418.493 108.94 419.022C110.238 419.559 111.283 420.303 112.075 421.261L109.85 422.702C109.218 421.928 108.417 421.345 107.457 420.954C106.513 420.548 105.535 420.341 104.524 420.341C102.232 420.341 100.311 421.138 98.76 422.733C97.2094 424.312 96.4089 426.214 96.3667 428.437C96.3667 430.752 97.142 432.669 98.6926 434.202C100.243 435.72 102.181 436.487 104.524 436.502C107.061 436.502 109.117 435.605 110.693 433.804L112.614 435.245C110.726 437.514 108.03 438.649 104.524 438.649C101.398 438.649 98.8106 437.668 96.7712 435.705C94.7234 433.742 93.6785 431.32 93.6364 428.437C93.6364 425.539 94.6645 423.116 96.7375 421.169C98.8022 419.229 101.398 418.248 104.524 418.225Z" fill="white"/>
<path d="M126.078 418.225C129.289 418.225 131.944 419.191 134.034 421.108C136.123 423.032 137.185 425.478 137.236 428.437C137.211 431.465 136.132 433.919 134 435.797C131.859 437.683 129.222 438.626 126.078 438.649C122.842 438.649 120.179 437.691 118.089 435.766C116 433.827 114.929 431.381 114.887 428.437C114.887 425.493 115.932 423.063 118.022 421.138C120.112 419.222 122.792 418.248 126.078 418.225ZM117.618 428.437C117.618 430.768 118.41 432.692 120.011 434.202C121.629 435.697 123.651 436.464 126.078 436.502C128.48 436.502 130.477 435.736 132.078 434.202C133.671 432.669 134.489 430.752 134.539 428.437C134.539 426.191 133.747 424.289 132.18 422.733C130.604 421.184 128.556 420.387 126.045 420.341C123.567 420.364 121.561 421.154 120.011 422.702C118.46 424.259 117.66 426.168 117.618 428.437Z" fill="white"/>
<path d="M145.085 418.716L152.332 433.957H152.399L159.714 418.716H163.388V438.158H160.86V421.844H160.793L153.107 438.158H151.557L143.905 421.844H143.837V438.158H141.309V418.716H145.085Z" fill="white"/>
<path d="M175.16 418.716C177.469 418.716 179.255 419.168 180.519 420.065C181.8 420.947 182.458 422.265 182.508 424.021C182.508 425.738 181.876 427.057 180.621 427.977C179.382 428.897 177.722 429.38 175.632 429.418H171.216V438.158H168.688V418.716H175.16ZM175.632 427.272C176.913 427.272 177.924 426.996 178.666 426.444C179.424 425.876 179.812 425.079 179.812 424.052C179.812 423.055 179.441 422.273 178.699 421.721C177.958 421.154 176.93 420.862 175.632 420.862H171.216V427.272H175.632Z" fill="white"/>
<path d="M189.015 418.716V430.4C189.015 432.385 189.47 433.888 190.397 434.908C191.341 435.935 192.723 436.464 194.543 436.502C196.38 436.487 197.754 435.966 198.656 434.938C199.574 433.896 200.046 432.424 200.071 430.522V418.716H202.633V430.829C202.633 433.305 201.925 435.23 200.51 436.594C199.094 437.944 197.105 438.626 194.543 438.649C192.024 438.649 190.06 437.967 188.644 436.594C187.229 435.207 186.504 433.275 186.487 430.798V418.716H189.015Z" fill="white"/>
<path d="M222.165 418.716V420.862H215.12V438.158H212.592V420.862H205.513V418.716H222.165Z" fill="white"/>
<path d="M234.503 418.716L243.57 438.158H240.638L238.447 433.374H227.761L225.536 438.158H222.671L232.109 418.716H234.503ZM233.188 421.66L228.739 431.228H237.469L233.256 421.66H233.188Z" fill="white"/>
<path d="M260.742 418.716V420.862H253.697V438.158H251.169V420.862H244.09V418.716H260.742Z" fill="white"/>
<path d="M266.271 418.716V438.158H263.743V418.716H266.271Z" fill="white"/>
<path d="M281.535 418.225C284.746 418.225 287.401 419.191 289.49 421.108C291.58 423.032 292.642 425.478 292.693 428.437C292.667 431.465 291.589 433.919 289.457 435.797C287.316 437.683 284.679 438.626 281.535 438.649C278.299 438.649 275.636 437.691 273.546 435.766C271.456 433.827 270.386 431.381 270.344 428.437C270.344 425.493 271.389 423.063 273.479 421.138C275.569 419.222 278.249 418.248 281.535 418.225ZM273.074 428.437C273.074 430.768 273.867 432.692 275.468 434.202C277.086 435.697 279.108 436.464 281.535 436.502C283.937 436.502 285.934 435.736 287.535 434.202C289.128 432.669 289.946 430.752 289.996 428.437C289.996 426.191 289.204 424.289 287.636 422.733C286.061 421.184 284.013 420.387 281.502 420.341C279.024 420.364 277.018 421.154 275.468 422.702C273.917 424.259 273.117 426.168 273.074 428.437Z" fill="white"/>
<path d="M299.969 418.716L312.34 434.846H312.407V418.716H314.935V438.158H311.733L299.362 421.997H299.294V438.158H296.766V418.716H299.969Z" fill="white"/>
<path d="M329.588 418.716L338.656 438.158H335.723L333.532 433.374H322.846L320.622 438.158H317.756L327.195 418.716H329.588ZM328.273 421.66L323.824 431.228H332.554L328.341 421.66H328.273Z" fill="white"/>
<path d="M344.03 418.716V436.012H353.805V438.158H341.502V418.716H344.03Z" fill="white"/>
<path d="M374.93 418.225C378.141 418.225 380.795 419.191 382.885 421.108C384.975 423.032 386.037 425.478 386.088 428.437C386.062 431.465 384.984 433.919 382.852 435.797C380.711 437.683 378.074 438.626 374.93 438.649C371.694 438.649 369.031 437.691 366.941 435.766C364.851 433.827 363.781 431.381 363.739 428.437C363.739 425.493 364.784 423.063 366.874 421.138C368.964 419.222 371.644 418.248 374.93 418.225ZM366.469 428.437C366.469 430.768 367.262 432.692 368.863 434.202C370.481 435.697 372.503 436.464 374.93 436.502C377.332 436.502 379.329 435.736 380.93 434.202C382.523 432.669 383.34 430.752 383.391 428.437C383.391 426.191 382.599 424.289 381.031 422.733C379.456 421.184 377.408 420.387 374.897 420.341C372.419 420.364 370.413 421.154 368.863 422.702C367.312 424.259 366.512 426.168 366.469 428.437Z" fill="white"/>
<path d="M393.363 418.716L405.734 434.846H405.802V418.716H408.33V438.158H405.128L392.757 421.997H392.689V438.158H390.161V418.716H393.363Z" fill="white"/>
<path d="M423.286 418.225C424.947 418.225 426.421 418.493 427.702 419.022C429 419.559 430.045 420.303 430.837 421.261L428.612 422.702C427.98 421.928 427.18 421.345 426.219 420.954C425.275 420.548 424.298 420.341 423.286 420.341C420.994 420.341 419.073 421.138 417.522 422.733C415.972 424.312 415.171 426.214 415.129 428.437C415.129 430.752 415.904 432.669 417.455 434.202C419.005 435.72 420.944 436.487 423.286 436.502C425.823 436.502 427.879 435.605 429.455 433.804L431.376 435.245C429.489 437.514 426.792 438.649 423.286 438.649C420.16 438.649 417.573 437.668 415.533 435.705C413.486 433.742 412.441 431.32 412.399 428.437C412.399 425.539 413.427 423.116 415.5 421.169C417.564 419.229 420.16 418.248 423.286 418.225Z" fill="white"/>
<path d="M444.841 418.225C448.051 418.225 450.706 419.191 452.796 421.108C454.886 423.032 455.947 425.478 455.998 428.437C455.973 431.465 454.894 433.919 452.762 435.797C450.622 437.683 447.984 438.626 444.841 438.649C441.605 438.649 438.942 437.691 436.852 435.766C434.762 433.827 433.692 431.381 433.649 428.437C433.649 425.493 434.694 423.063 436.784 421.138C438.874 419.222 441.554 418.248 444.841 418.225ZM436.38 428.437C436.38 430.768 437.172 432.692 438.773 434.202C440.391 435.697 442.414 436.464 444.841 436.502C447.242 436.502 449.239 435.736 450.841 434.202C452.433 432.669 453.251 430.752 453.301 428.437C453.301 426.191 452.509 424.289 450.942 422.733C449.366 421.184 447.318 420.387 444.807 420.341C442.329 420.364 440.324 421.154 438.773 422.702C437.222 424.259 436.422 426.168 436.38 428.437Z" fill="white"/>
<path d="M462.6 418.716V436.012H472.375V438.158H460.072V418.716H462.6Z" fill="white"/>
<path d="M485.108 418.225C488.319 418.225 490.974 419.191 493.064 421.108C495.153 423.032 496.215 425.478 496.266 428.437C496.241 431.465 495.162 433.919 493.03 435.797C490.889 437.683 488.252 438.626 485.108 438.649C481.872 438.649 479.209 437.691 477.12 435.766C475.03 433.827 473.959 431.381 473.917 428.437C473.917 425.493 474.962 423.063 477.052 421.138C479.142 419.222 481.822 418.248 485.108 418.225ZM476.648 428.437C476.648 430.768 477.44 432.692 479.041 434.202C480.659 435.697 482.681 436.464 485.108 436.502C487.51 436.502 489.507 435.736 491.108 434.202C492.701 432.669 493.519 430.752 493.569 428.437C493.569 426.191 492.777 424.289 491.21 422.733C489.634 421.184 487.586 420.387 485.075 420.341C482.597 420.364 480.591 421.154 479.041 422.702C477.49 424.259 476.69 426.168 476.648 428.437Z" fill="white"/>
<path d="M510.587 418.225C513.755 418.225 516.267 419.076 518.137 420.77L516.25 422.58C515.508 421.867 514.615 421.315 513.587 420.924C512.576 420.54 511.514 420.341 510.418 420.341C507.966 420.341 505.935 421.123 504.317 422.672C502.699 424.205 501.865 426.129 501.823 428.437C501.839 430.829 502.674 432.761 504.317 434.233C505.977 435.705 508.092 436.464 510.654 436.502C512.517 436.502 514.295 436.134 515.98 435.398V429.418H511.059V427.272H518.508V436.84C516.056 438.051 513.393 438.649 510.519 438.649C507.149 438.649 504.401 437.698 502.295 435.797C500.205 433.88 499.134 431.427 499.092 428.437C499.109 425.455 500.205 423.024 502.362 421.138C504.519 419.237 507.258 418.271 510.587 418.225Z" fill="white"/>
<path d="M524.127 418.716L530.128 427.486L536.33 418.716H539.364L531.408 429.786V438.158H528.847V429.786L520.891 418.716H524.127Z" fill="white"/>
</svg>
